<svg xmlns="http://www.w3.org/2000/svg" width="500" height="500" viewBox="0 0 500 500">
<g>
<path d="M 253.87 467.70 C252.24,470.06 250.58,472.00 250.18,472.00 C249.78,472.00 247.26,469.10 244.58,465.56 C238.93,458.08 230.88,451.25 223.41,447.59 C212.23,442.11 210.84,442.00 154.88,442.00 C96.63,442.00 92.68,441.65 80.27,435.39 C71.76,431.10 65.43,424.78 61.15,416.30 C60.31,414.64 59.59,413.36 58.96,412.04 C54.98,403.63 54.98,393.34 54.99,270.28 C54.99,262.14 54.99,253.51 54.99,244.36 L 54.99 90.50 L 50.40 82.50 C33.92,53.72 20.92,29.75 21.49,29.17 C21.86,28.80 47.62,28.39 78.72,28.26 L 135.28 28.02 L 143.90 36.46 L 152.52 44.89 L 169.77 27.95 L 250.36 28.23 L 330.96 28.50 L 339.25 36.75 L 347.54 45.00 L 355.97 36.53 L 364.40 28.06 L 422.20 28.02 C453.99,27.99 480.00,28.18 480.00,28.43 C480.00,28.69 472.12,42.85 462.50,59.92 L 445.00 90.94 L 445.00 244.42 C445.00,352.61 444.67,399.47 443.89,403.20 C440.98,417.18 431.64,429.62 419.66,435.48 C406.92,441.71 403.75,442.00 347.18,442.01 C319.13,442.01 293.85,442.45 290.56,442.98 C277.89,445.06 262.14,455.67 253.87,467.70 ZM 246.00 462.89 C247.93,465.65 249.74,467.93 250.03,467.95 C250.33,467.98 251.31,466.76 252.22,465.25 C257.41,456.60 271.03,446.01 282.28,441.88 C288.41,439.63 289.35,439.59 346.50,438.98 C408.67,438.32 407.19,438.45 418.33,432.83 C429.26,427.32 436.00,418.91 440.65,405.00 C442.39,399.78 442.51,391.45 442.99,243.50 L 443.50 87.50 L 459.00 60.07 C467.52,44.99 474.65,32.27 474.83,31.82 C475.02,31.37 450.54,31.00 420.45,31.00 L 365.73 31.00 L 356.57 39.98 L 347.42 48.96 L 338.48 39.98 L 329.54 31.00 L 170.71 31.00 L 161.62 39.95 L 152.52 48.90 L 143.40 39.95 L 134.27 31.00 L 80.30 31.00 C50.62,31.00 26.07,31.26 25.76,31.58 C25.44,31.89 27.56,36.28 30.47,41.33 C33.38,46.37 40.77,59.48 46.88,70.46 L 58.00 90.42 L 58.00 244.50 C58.00,251.70 58.00,258.57 58.00,265.14 C57.99,394.07 57.99,403.68 61.72,411.51 C62.21,412.53 62.76,413.53 63.39,414.77 C67.22,422.31 73.23,428.35 80.95,432.40 C93.03,438.75 95.34,438.96 153.70,438.98 C187.62,438.99 207.76,439.38 211.20,440.10 C223.68,442.68 238.81,452.59 246.00,462.89 ZM 256.00 443.75 C252.80,446.64 250.03,448.98 249.84,448.95 C249.65,448.93 246.96,446.57 243.86,443.70 C236.88,437.26 227.53,431.63 219.00,428.75 C212.69,426.62 210.82,426.54 155.50,426.03 C99.79,425.51 98.37,425.45 92.65,423.29 C82.00,419.27 76.09,413.18 72.90,402.94 C71.07,397.03 71.00,391.42 71.00,241.51 L 71.00 86.21 L 59.54 65.85 L 48.08 45.50 L 88.63 45.24 L 129.19 44.98 L 140.82 55.88 L 152.44 66.77 L 164.08 55.89 L 175.71 45.00 L 324.65 45.00 L 336.36 56.13 L 348.08 67.25 L 359.29 56.14 L 370.50 45.02 L 411.25 45.01 C433.66,45.00 452.00,45.16 452.00,45.36 C452.00,45.55 446.83,54.88 440.50,66.09 L 429.00 86.46 L 429.00 241.18 C429.00,348.75 428.67,397.45 427.91,400.97 C425.78,410.92 417.08,420.23 406.71,423.68 C402.11,425.20 394.87,425.47 344.50,425.95 L 287.50 426.50 L 280.17 429.18 C270.87,432.58 263.38,437.09 256.00,443.75 ZM 243.31 431.57 C246.66,434.00 249.62,436.00 249.88,436.00 C250.15,436.00 253.54,433.81 257.43,431.13 C261.32,428.45 267.20,424.90 270.50,423.24 C282.18,417.37 285.72,416.72 309.22,416.08 L 330.94 415.50 L 317.22 405.56 C284.50,381.87 217.83,333.48 186.20,310.46 C167.34,296.73 150.92,284.83 149.70,284.01 C148.49,283.19 138.50,275.95 127.50,267.93 C97.79,246.27 82.05,235.00 81.47,235.00 C81.19,235.00 81.08,272.01 81.23,317.25 L 81.50 399.50 L 83.74 403.69 C84.97,406.00 87.57,409.10 89.51,410.58 C96.17,415.65 100.04,415.97 156.09,415.98 C203.75,416.00 208.25,416.15 215.23,417.93 C224.14,420.21 234.84,425.41 243.31,431.57 ZM 409.94 315.72 C413.00,318.04 416.51,319.95 417.75,319.97 L 420.00 320.00 L 420.00 178.00 L 327.75 177.82 C277.01,177.72 232.64,177.69 229.15,177.75 C223.46,177.85 220.90,178.42 222.08,179.31 C226.58,182.69 242.64,194.42 246.00,196.77 C251.68,200.76 270.63,214.42 273.97,216.95 C275.36,218.00 282.58,223.26 290.00,228.64 C297.42,234.02 303.65,238.78 303.83,239.21 C304.02,239.64 304.58,240.00 305.07,240.00 C305.57,240.00 307.92,241.46 310.29,243.25 C312.66,245.04 315.70,247.29 317.05,248.26 C327.29,255.60 351.98,273.49 354.03,275.04 C355.41,276.09 361.11,280.23 366.68,284.23 C384.26,296.85 404.18,311.34 409.94,315.72 ZM 81.00 157.00 L 81.00 165.00 L 419.00 165.00 L 419.00 157.00 ZM 350.32 412.74 C353.95,415.56 355.28,415.98 360.44,415.99 L 366.38 416.00 L 359.94 411.29 C356.40,408.70 350.35,404.27 346.50,401.44 C342.65,398.61 326.23,386.70 310.00,374.98 C274.41,349.25 220.41,310.10 213.50,305.01 C210.75,302.99 200.18,295.33 190.00,288.00 C179.82,280.67 169.93,273.49 168.00,272.04 C166.07,270.58 148.38,257.72 128.68,243.45 C108.98,229.18 90.20,215.56 86.93,213.19 L 81.00 208.88 L 81.03 213.19 L 81.05 217.50 L 92.28 225.59 C98.45,230.03 115.20,242.15 129.50,252.52 C143.80,262.89 159.27,274.10 163.88,277.44 C168.48,280.77 175.68,286.00 179.88,289.06 C184.07,292.12 207.30,308.95 231.50,326.48 C255.70,344.00 278.65,360.64 282.50,363.46 C286.35,366.28 302.24,377.80 317.82,389.05 C333.39,400.30 348.02,410.96 350.32,412.74 ZM 172.57 117.75 L 177.27 147.00 L 188.86 147.00 L 189.90 141.75 C190.48,138.86 191.65,132.02 192.51,126.55 C193.37,121.08 194.22,116.45 194.40,116.26 C194.59,116.08 195.83,122.81 197.18,131.22 L 199.62 146.50 L 205.62 146.79 L 211.62 147.09 L 215.40 123.79 C217.47,110.98 219.76,97.20 220.48,93.18 C221.96,84.89 221.81,84.65 215.38,85.18 L 211.56 85.50 L 209.19 101.00 C207.88,109.53 206.48,117.38 206.08,118.46 C205.60,119.71 204.34,114.07 202.55,102.71 L 199.76 85.00 L 189.18 85.00 L 188.09 91.75 C184.65,113.09 183.23,120.34 182.77,119.00 C182.48,118.18 181.27,110.97 180.06,103.00 C178.10,89.97 177.75,86.32 175.94,85.33 C175.24,84.95 174.31,84.96 172.99,84.99 C172.65,84.99 172.27,85.00 171.87,85.00 C167.58,85.00 166.94,85.25 167.37,86.75 C167.65,87.71 169.99,101.66 172.57,117.75 ZM 382.43 320.96 C402.19,335.28 418.65,347.00 419.00,347.00 C419.35,347.00 419.38,345.13 419.07,342.84 L 418.50 338.69 L 376.00 307.85 C352.62,290.88 329.90,274.39 325.50,271.19 C321.10,267.99 304.23,255.77 288.00,244.03 C271.77,232.29 255.35,220.36 251.50,217.52 C243.84,211.87 207.26,185.37 199.91,180.15 C195.88,177.29 194.65,176.92 190.01,177.19 L 184.71 177.50 L 204.10 191.58 C214.77,199.33 235.20,214.14 249.50,224.48 C263.80,234.83 279.33,246.09 284.00,249.49 C288.67,252.90 302.62,263.02 315.00,271.98 C327.38,280.93 339.52,289.76 342.00,291.59 C344.48,293.42 362.67,306.64 382.43,320.96 ZM 296.42 145.58 C301.56,147.82 311.13,147.38 315.10,144.73 C321.60,140.39 322.11,138.10 321.79,114.50 C321.47,91.43 321.03,89.62 314.90,86.45 C311.18,84.52 299.72,84.56 295.61,86.52 C289.40,89.46 289.00,91.28 289.00,116.27 C289.00,137.79 289.09,138.85 291.17,141.48 C292.36,143.00 294.72,144.84 296.42,145.58 ZM 330.00 85.00 L 330.00 147.00 L 340.00 147.00 L 340.00 119.00 L 342.87 119.00 C345.64,119.00 345.92,119.49 351.04,133.00 L 356.34 147.00 L 361.24 147.00 C361.67,147.00 362.07,147.01 362.44,147.02 C363.83,147.04 364.75,147.06 365.18,146.61 C366.04,145.72 364.97,142.98 361.78,134.81 C361.35,133.71 360.89,132.52 360.38,131.22 C355.58,118.86 355.38,118.00 357.31,118.00 C358.04,118.00 359.95,116.62 361.56,114.93 C364.25,112.13 364.53,111.16 364.85,103.57 C365.25,93.96 363.81,90.08 358.70,86.96 C355.97,85.29 353.63,85.01 342.75,85.00 ZM 338.24 380.22 C340.03,381.72 341.76,382.96 342.09,382.97 C342.41,382.99 343.67,379.06 344.89,374.25 C348.58,359.66 349.40,356.12 351.39,355.27 C352.02,354.99 352.78,355.00 353.78,355.00 C353.89,355.00 354.00,355.00 354.12,355.00 C359.75,355.00 363.00,352.98 367.21,346.84 C375.80,334.33 374.74,330.66 359.34,319.54 L 349.01 312.09 L 345.04 317.80 C342.85,320.93 338.94,326.42 336.34,330.00 C333.74,333.58 327.47,342.20 322.41,349.16 L 313.20 361.83 L 317.17 365.01 C319.35,366.77 321.25,368.04 321.39,367.85 C321.53,367.66 325.14,362.66 329.41,356.75 C333.68,350.84 337.47,346.01 337.84,346.03 C338.20,346.05 339.30,346.67 340.28,347.41 C341.96,348.69 341.87,349.44 338.53,361.77 C336.59,368.92 335.00,375.39 334.99,376.14 C334.99,376.89 336.45,378.73 338.24,380.22 ZM 152.25 245.22 C154.04,246.72 155.82,247.96 156.21,247.97 C156.94,248.00 159.53,239.65 162.63,227.27 L 164.43 220.05 L 167.97 220.57 C172.78,221.28 176.84,218.58 182.48,210.91 C189.37,201.56 188.62,195.97 179.59,189.17 C171.29,182.92 163.83,177.83 163.50,178.18 C162.94,178.76 154.33,190.55 140.94,209.09 L 127.77 227.32 L 130.13 229.19 C131.43,230.21 133.26,231.50 134.19,232.03 C134.59,232.26 134.87,232.48 135.17,232.52 C136.20,232.67 137.53,230.86 144.76,220.94 C145.27,220.25 145.80,219.52 146.36,218.75 C151.53,211.67 152.19,211.10 154.01,212.24 C156.61,213.86 156.57,214.26 152.48,229.50 L 148.99 242.50 ZM 84.00 85.00 L 84.00 147.00 L 93.95 147.00 L 94.23 128.82 L 94.50 110.64 L 97.20 117.07 C98.69,120.61 102.15,128.68 104.89,135.00 L 109.87 146.50 L 120.00 147.10 L 120.00 85.00 L 110.00 85.00 L 109.93 103.25 L 109.86 121.50 L 107.88 117.00 C106.79,114.53 103.17,106.31 99.84,98.75 L 93.79 85.00 ZM 227.79 300.21 C229.83,301.71 231.80,302.94 232.16,302.96 C232.52,302.98 240.35,292.54 249.56,279.75 C258.76,266.96 266.73,255.94 267.27,255.25 C268.46,253.72 267.31,252.18 263.17,249.75 L 260.18 248.00 L 249.84 262.40 C244.15,270.33 239.38,276.69 239.23,276.55 C239.07,276.40 239.82,272.51 240.89,267.89 C241.95,263.28 243.81,254.78 245.02,249.02 L 247.20 238.53 L 243.89 235.77 C242.07,234.25 240.11,233.02 239.54,233.04 C238.97,233.07 236.25,236.28 233.50,240.19 C230.75,244.10 222.77,255.18 215.78,264.83 L 203.05 282.35 L 205.92 284.10 C207.49,285.05 209.08,286.32 209.45,286.92 C209.82,287.51 210.43,288.00 210.81,288.00 C211.19,288.00 216.20,281.49 221.95,273.53 C227.69,265.57 232.48,259.16 232.59,259.28 C232.82,259.53 225.64,292.47 224.69,295.50 C224.22,297.02 224.95,298.14 227.79,300.21 ZM 266.83 328.02 C268.12,329.11 269.53,330.00 269.98,330.00 C270.85,330.00 287.69,307.07 288.44,304.85 C288.72,304.03 285.94,301.39 281.35,298.11 L 273.79 292.73 L 271.43 295.61 C270.13,297.20 269.06,298.78 269.04,299.12 C269.02,299.46 270.57,300.81 272.49,302.12 C274.41,303.43 275.99,304.77 275.99,305.11 C276.01,306.66 268.73,315.00 267.36,315.00 C264.98,315.00 260.06,311.78 259.44,309.80 C259.33,309.45 259.22,309.19 259.17,308.91 C258.94,307.56 260.08,305.98 268.75,293.93 C269.23,293.25 269.74,292.54 270.28,291.80 C275.66,284.31 280.77,277.92 281.64,277.58 C283.54,276.85 289.54,280.36 290.45,282.73 C290.85,283.78 289.97,286.01 288.10,288.66 L 285.10 292.91 L 292.81 299.02 L 295.76 295.26 C299.99,289.86 301.00,287.60 301.00,283.50 C301.00,278.40 299.73,276.53 292.83,271.45 C288.06,267.94 285.94,267.00 282.79,267.00 C277.88,267.00 274.29,269.07 270.91,273.84 C269.48,275.85 263.97,283.52 258.66,290.87 C249.63,303.37 249.00,304.56 249.00,309.07 C249.00,314.73 250.67,316.96 259.00,322.42 C262.02,324.41 265.55,326.92 266.83,328.02 ZM 194.49 275.91 L 197.49 278.17 L 198.87 274.84 C200.77,270.25 218.57,223.00 219.39,220.40 C219.91,218.71 219.24,217.76 215.99,215.61 L 211.94 212.93 L 202.12 220.72 C196.72,225.00 185.65,233.88 177.51,240.45 L 162.72 252.40 L 166.07 255.20 C167.92,256.74 169.89,258.00 170.46,258.00 C171.03,258.00 173.52,256.24 176.00,254.10 L 180.50 250.21 L 187.00 254.77 C190.57,257.28 193.68,259.47 193.89,259.64 C194.11,259.81 193.28,262.71 192.05,266.08 C190.82,269.46 190.19,272.54 190.66,272.94 C191.12,273.33 192.85,274.67 194.49,275.91 ZM 377.00 85.00 L 377.00 147.00 L 387.00 147.00 L 387.03 134.25 C387.06,122.58 387.27,121.17 389.46,117.60 L 391.85 113.71 L 393.28 117.10 C394.07,118.97 397.31,126.46 400.49,133.75 L 406.28 147.00 L 411.25 147.00 C414.82,147.00 416.08,146.65 415.72,145.75 C415.45,145.06 411.35,135.64 406.61,124.81 C401.88,113.98 398.00,104.87 398.00,104.55 C398.00,104.24 400.28,100.34 403.07,95.89 C403.27,95.56 403.47,95.25 403.66,94.94 C407.54,88.75 409.01,86.41 408.40,85.53 C408.02,84.99 406.88,85.00 405.04,85.00 C404.89,85.00 404.73,85.00 404.57,85.00 L 399.93 85.00 L 395.04 92.75 C394.63,93.41 394.24,94.03 393.86,94.62 C390.17,100.49 388.48,103.17 387.71,102.92 C387.07,102.72 387.06,100.47 387.05,96.33 C387.05,95.83 387.05,95.30 387.04,94.75 L 387.00 85.00 ZM 364.53 398.72 C377.16,405.87 392.61,394.41 389.10,380.49 C388.52,378.17 386.68,373.25 385.02,369.55 C381.48,361.66 381.26,358.74 384.00,356.00 C386.68,353.32 389.57,353.48 392.55,356.45 C395.42,359.32 395.64,361.65 393.35,364.91 C391.78,367.16 391.81,367.35 394.10,369.16 C399.29,373.26 399.84,373.31 401.99,369.78 C405.02,364.82 405.48,360.55 403.55,355.49 C400.45,347.36 391.71,342.57 384.14,344.84 C371.84,348.52 368.91,359.03 375.88,374.40 C377.60,378.18 379.00,382.64 379.00,384.31 C379.00,390.76 372.18,393.27 367.45,388.55 C364.47,385.56 364.32,382.13 367.04,378.68 L 369.08 376.08 L 364.94 373.34 L 360.81 370.61 L 358.91 373.05 C352.37,381.48 354.96,393.30 364.53,398.72 ZM 133.00 85.00 L 133.00 147.06 L 157.50 146.50 L 158.11 137.00 L 143.00 137.00 L 143.00 121.09 L 157.50 120.50 L 158.11 111.00 L 143.00 111.00 L 143.00 95.00 L 158.00 95.00 L 158.00 85.00 ZM 290.70 345.82 C296.09,349.71 300.73,352.91 301.00,352.93 C301.27,352.94 302.73,351.22 304.22,349.11 L 306.95 345.25 L 300.96 341.06 L 294.98 336.86 L 298.01 332.68 C299.68,330.38 301.87,327.43 302.88,326.11 L 304.72 323.72 L 316.20 332.39 L 318.13 329.94 C322.30,324.66 322.28,324.55 316.48,320.39 C313.49,318.25 311.03,316.11 311.02,315.63 C311.00,314.90 316.71,306.42 319.08,303.65 C319.48,303.18 322.33,304.69 325.41,307.02 C331.46,311.59 332.10,311.54 335.21,306.24 L 336.92 303.33 L 330.21 298.46 C326.52,295.78 322.12,292.57 320.43,291.32 L 317.36 289.04 L 301.01 311.77 C292.01,324.27 283.81,335.45 282.78,336.62 C280.90,338.73 280.92,338.75 290.70,345.82 ZM 260.00 121.16 L 260.00 147.00 L 270.00 147.00 L 270.00 121.18 L 275.88 105.34 C276.66,103.23 277.37,101.34 278.00,99.64 C281.87,89.30 283.04,86.17 282.09,85.27 C281.68,84.88 280.87,84.91 279.70,84.96 C279.26,84.98 278.77,85.00 278.23,85.00 L 273.32 85.00 L 269.48 95.50 C267.36,101.28 265.36,106.00 265.03,106.00 C264.70,106.00 262.71,101.28 260.62,95.50 L 256.81 85.00 L 251.91 85.00 C249.21,85.00 247.00,85.14 247.00,85.30 C247.00,85.47 249.93,93.61 253.50,103.39 ZM 309.96 135.55 C308.58,137.21 303.33,137.42 300.75,135.92 C299.18,135.01 299.00,132.95 299.00,116.15 C299.00,102.90 299.35,97.05 300.20,96.20 C301.81,94.59 308.48,94.67 309.84,96.31 C311.43,98.23 311.54,133.64 309.96,135.55 ZM 353.80 107.80 C353.12,108.48 349.87,109.00 346.30,109.00 L 340.00 109.00 L 340.00 95.00 L 346.30 95.00 C349.87,95.00 353.12,95.52 353.80,96.20 C354.46,96.86 355.00,99.47 355.00,102.00 C355.00,104.53 354.46,107.14 353.80,107.80 ZM 358.05 341.95 C356.48,343.63 354.81,345.00 354.35,345.00 C353.00,345.00 343.47,337.97 343.76,337.20 C343.90,336.81 345.69,334.19 347.74,331.36 L 351.46 326.22 L 355.54 329.03 C363.04,334.19 363.43,336.19 358.05,341.95 ZM 173.45 206.48 C171.97,208.42 169.98,210.00 169.03,210.00 C167.70,210.00 161.66,206.35 158.15,203.42 C157.64,203.00 165.36,192.03 166.17,192.01 C167.97,191.98 175.54,198.86 175.82,200.77 C175.99,202.00 174.96,204.50 173.45,206.48 ZM 201.35 241.30 C199.38,246.63 197.48,250.99 197.13,250.98 C195.84,250.95 188.02,245.47 188.26,244.77 C188.55,243.88 204.32,230.98 204.67,231.34 C204.81,231.48 203.32,235.96 201.35,241.30 Z" fill="rgb(6,72,147)"/>
<path d="M 409.94 315.72 C404.18,311.34 384.26,296.85 366.68,284.23 C361.11,280.23 355.41,276.09 354.03,275.04 C351.98,273.49 327.29,255.60 317.05,248.26 C315.70,247.29 312.66,245.04 310.29,243.25 C307.92,241.46 305.57,240.00 305.07,240.00 C304.58,240.00 304.02,239.64 303.83,239.21 C303.65,238.78 297.42,234.02 290.00,228.64 C282.58,223.26 275.36,218.00 273.97,216.95 C270.63,214.42 251.68,200.76 246.00,196.77 C242.64,194.42 226.58,182.69 222.08,179.31 C220.90,178.42 223.46,177.85 229.15,177.75 C232.64,177.69 277.01,177.72 327.75,177.82 L 420.00 178.00 L 420.00 320.00 L 417.75 319.97 C416.51,319.95 413.00,318.04 409.94,315.72 Z" fill="rgb(224,26,48)"/>
<path d="M 0.00 250.00 L 0.00 0.00 L 250.00 0.00 L 500.00 0.00 L 500.00 250.00 L 500.00 500.00 L 250.00 500.00 L 0.00 500.00 L 0.00 250.00 ZM 253.87 467.70 C262.14,455.67 277.89,445.06 290.56,442.98 C293.85,442.45 319.13,442.01 347.18,442.01 C403.75,442.00 406.92,441.71 419.66,435.48 C431.64,429.62 440.98,417.18 443.89,403.20 C444.67,399.47 445.00,352.61 445.00,244.42 L 445.00 90.94 L 462.50 59.92 C472.12,42.85 480.00,28.69 480.00,28.43 C480.00,28.18 453.99,27.99 422.20,28.02 L 364.40 28.06 L 355.97 36.53 L 347.54 45.00 L 339.25 36.75 L 330.96 28.50 L 250.36 28.23 L 169.77 27.95 L 161.15 36.42 L 152.52 44.89 L 143.90 36.46 L 135.28 28.02 L 78.72 28.26 C47.62,28.39 21.86,28.80 21.49,29.17 C20.92,29.75 33.92,53.72 50.40,82.50 L 54.99 90.50 L 54.99 244.36 C55.00,413.76 54.63,403.38 61.15,416.30 C65.43,424.78 71.76,431.10 80.27,435.39 C92.68,441.65 96.63,442.00 154.88,442.00 C210.84,442.00 212.23,442.11 223.41,447.59 C230.88,451.25 238.93,458.08 244.58,465.56 C247.26,469.10 249.78,472.00 250.18,472.00 C250.58,472.00 252.24,470.06 253.87,467.70 ZM 246.00 462.89 C238.81,452.59 223.68,442.68 211.20,440.10 C207.76,439.38 187.62,438.99 153.70,438.98 C95.34,438.96 93.03,438.75 80.95,432.40 C73.23,428.35 67.22,422.31 63.39,414.77 C57.75,403.66 58.00,411.67 58.00,244.50 L 58.00 90.42 L 46.88 70.46 C40.77,59.48 33.38,46.37 30.47,41.33 C27.56,36.28 25.44,31.89 25.76,31.58 C26.07,31.26 50.62,31.00 80.30,31.00 L 134.27 31.00 L 143.40 39.95 L 152.52 48.90 L 161.62 39.95 L 170.71 31.00 L 250.13 31.00 L 329.54 31.00 L 338.48 39.98 L 347.42 48.96 L 356.57 39.98 L 365.73 31.00 L 420.45 31.00 C450.54,31.00 475.02,31.37 474.83,31.82 C474.65,32.27 467.52,44.99 459.00,60.07 L 443.50 87.50 L 442.99 243.50 C442.51,391.45 442.39,399.78 440.65,405.00 C436.00,418.91 429.26,427.32 418.33,432.83 C407.19,438.45 408.67,438.32 346.50,438.98 C289.35,439.59 288.41,439.63 282.28,441.88 C271.03,446.01 257.41,456.60 252.22,465.25 C251.31,466.76 250.33,467.98 250.03,467.95 C249.74,467.93 247.93,465.65 246.00,462.89 ZM 256.00 443.75 C263.38,437.09 270.87,432.58 280.17,429.18 L 287.50 426.50 L 344.50 425.95 C394.87,425.47 402.11,425.20 406.71,423.68 C417.08,420.23 425.78,410.92 427.91,400.97 C428.67,397.45 429.00,348.75 429.00,241.18 L 429.00 86.46 L 440.50 66.09 C446.83,54.88 452.00,45.55 452.00,45.36 C452.00,45.16 433.66,45.00 411.25,45.01 L 370.50 45.02 L 359.29 56.14 L 348.08 67.25 L 336.36 56.13 L 324.65 45.00 L 250.18 45.00 L 175.71 45.00 L 164.08 55.89 L 152.44 66.77 L 140.82 55.88 L 129.19 44.98 L 88.63 45.24 L 48.08 45.50 L 59.54 65.85 L 71.00 86.21 L 71.00 241.51 C71.00,391.42 71.07,397.03 72.90,402.94 C76.09,413.18 82.00,419.27 92.65,423.29 C98.37,425.45 99.79,425.51 155.50,426.03 C210.82,426.54 212.69,426.62 219.00,428.75 C227.53,431.63 236.88,437.26 243.86,443.70 C246.96,446.57 249.65,448.93 249.84,448.95 C250.03,448.98 252.80,446.64 256.00,443.75 ZM 243.31 431.57 C234.84,425.41 224.14,420.21 215.23,417.93 C208.25,416.15 203.75,416.00 156.09,415.98 C100.04,415.97 96.17,415.65 89.51,410.58 C87.57,409.10 84.97,406.00 83.74,403.69 L 81.50 399.50 L 81.23 317.25 C81.08,272.01 81.19,235.00 81.47,235.00 C82.05,235.00 97.79,246.27 127.50,267.93 C138.50,275.95 148.49,283.19 149.70,284.01 C150.92,284.83 167.34,296.73 186.20,310.46 C217.83,333.48 284.50,381.87 317.22,405.56 L 330.94 415.50 L 309.22 416.08 C285.72,416.72 282.18,417.37 270.50,423.24 C267.20,424.90 261.32,428.45 257.43,431.13 C253.54,433.81 250.15,436.00 249.88,436.00 C249.62,436.00 246.66,434.00 243.31,431.57 ZM 350.32 412.74 C348.02,410.96 333.39,400.30 317.82,389.05 C302.24,377.80 286.35,366.28 282.50,363.46 C278.65,360.64 255.70,344.00 231.50,326.48 C207.30,308.95 184.07,292.12 179.88,289.06 C175.68,286.00 168.48,280.77 163.88,277.44 C159.27,274.10 143.80,262.89 129.50,252.52 C115.20,242.15 98.45,230.03 92.28,225.59 L 81.05 217.50 L 81.03 213.19 L 81.00 208.88 L 86.93 213.19 C90.20,215.56 108.98,229.18 128.68,243.45 C148.38,257.72 166.07,270.58 168.00,272.04 C169.93,273.49 179.82,280.67 190.00,288.00 C200.18,295.33 210.75,302.99 213.50,305.01 C220.41,310.10 274.41,349.25 310.00,374.98 C326.23,386.70 342.65,398.61 346.50,401.44 C350.35,404.27 356.40,408.70 359.94,411.29 L 366.38 416.00 L 360.44 415.99 C355.28,415.98 353.95,415.56 350.32,412.74 ZM 364.53 398.72 C354.96,393.30 352.37,381.48 358.91,373.05 L 360.81 370.61 L 364.94 373.34 L 369.08 376.08 L 367.04 378.68 C364.32,382.13 364.47,385.56 367.45,388.55 C372.18,393.27 379.00,390.76 379.00,384.31 C379.00,382.64 377.60,378.18 375.88,374.40 C368.91,359.03 371.84,348.52 384.14,344.84 C391.71,342.57 400.45,347.36 403.55,355.49 C405.48,360.55 405.02,364.82 401.99,369.78 C399.84,373.31 399.29,373.26 394.10,369.16 C391.81,367.35 391.78,367.16 393.35,364.91 C395.64,361.65 395.42,359.32 392.55,356.45 C389.57,353.48 386.68,353.32 384.00,356.00 C381.26,358.74 381.48,361.66 385.02,369.55 C386.68,373.25 388.52,378.17 389.10,380.49 C392.61,394.41 377.16,405.87 364.53,398.72 ZM 338.24 380.22 C336.45,378.73 334.99,376.89 334.99,376.14 C335.00,375.39 336.59,368.92 338.53,361.77 C341.87,349.44 341.96,348.69 340.28,347.41 C339.30,346.67 338.20,346.05 337.84,346.03 C337.47,346.01 333.68,350.84 329.41,356.75 C325.14,362.66 321.53,367.66 321.39,367.85 C321.25,368.04 319.35,366.77 317.17,365.01 L 313.20 361.83 L 322.41 349.16 C327.47,342.20 333.74,333.58 336.34,330.00 C338.94,326.42 342.85,320.93 345.04,317.80 L 349.01 312.09 L 359.34 319.54 C374.74,330.66 375.80,334.33 367.21,346.84 C363.00,352.98 359.75,355.00 354.12,355.00 C349.63,355.00 349.89,354.47 344.89,374.25 C343.67,379.06 342.41,382.99 342.09,382.97 C341.76,382.96 340.03,381.72 338.24,380.22 ZM 358.05 341.95 C363.43,336.19 363.04,334.19 355.54,329.03 L 351.46 326.22 L 347.74 331.36 C345.69,334.19 343.90,336.81 343.76,337.20 C343.47,337.97 353.00,345.00 354.35,345.00 C354.81,345.00 356.48,343.63 358.05,341.95 ZM 290.70 345.82 C280.92,338.75 280.90,338.73 282.78,336.62 C283.81,335.45 292.01,324.27 301.01,311.77 L 317.36 289.04 L 320.43 291.32 C322.12,292.57 326.52,295.78 330.21,298.46 L 336.92 303.33 L 335.21 306.24 C332.10,311.54 331.46,311.59 325.41,307.02 C322.33,304.69 319.48,303.18 319.08,303.65 C316.71,306.42 311.00,314.90 311.02,315.63 C311.03,316.11 313.49,318.25 316.48,320.39 C322.28,324.55 322.30,324.66 318.13,329.94 L 316.20 332.39 L 310.46 328.06 L 304.72 323.72 L 302.88 326.11 C301.87,327.43 299.68,330.38 298.01,332.68 L 294.98 336.86 L 300.96 341.06 L 306.95 345.25 L 304.22 349.11 C302.73,351.22 301.27,352.94 301.00,352.93 C300.73,352.91 296.09,349.71 290.70,345.82 ZM 382.43 320.96 C362.67,306.64 344.48,293.42 342.00,291.59 C339.52,289.76 327.38,280.93 315.00,271.98 C302.62,263.02 288.67,252.90 284.00,249.49 C279.33,246.09 263.80,234.83 249.50,224.48 C235.20,214.14 214.77,199.33 204.10,191.58 L 184.71 177.50 L 190.01 177.19 C194.65,176.92 195.88,177.29 199.91,180.15 C207.26,185.37 243.84,211.87 251.50,217.52 C255.35,220.36 271.77,232.29 288.00,244.03 C304.23,255.77 321.10,267.99 325.50,271.19 C329.90,274.39 352.62,290.88 376.00,307.85 L 418.50 338.69 L 419.07 342.84 C419.38,345.13 419.35,347.00 419.00,347.00 C418.65,347.00 402.19,335.28 382.43,320.96 ZM 266.83 328.02 C265.55,326.92 262.02,324.41 259.00,322.42 C250.67,316.96 249.00,314.73 249.00,309.07 C249.00,304.56 249.63,303.37 258.66,290.87 C263.97,283.52 269.48,275.85 270.91,273.84 C274.29,269.07 277.88,267.00 282.79,267.00 C285.94,267.00 288.06,267.94 292.83,271.45 C299.73,276.53 301.00,278.40 301.00,283.50 C301.00,287.60 299.99,289.86 295.76,295.26 L 292.81 299.02 L 288.96 295.97 L 285.10 292.91 L 288.10 288.66 C289.97,286.01 290.85,283.78 290.45,282.73 C289.54,280.36 283.54,276.85 281.64,277.58 C280.77,277.92 275.66,284.31 270.28,291.80 C258.23,308.55 258.76,307.67 259.44,309.80 C260.06,311.78 264.98,315.00 267.36,315.00 C268.73,315.00 276.01,306.66 275.99,305.11 C275.99,304.77 274.41,303.43 272.49,302.12 C270.57,300.81 269.02,299.46 269.04,299.12 C269.06,298.78 270.13,297.20 271.43,295.61 L 273.79 292.73 L 281.35 298.11 C285.94,301.39 288.72,304.03 288.44,304.85 C287.69,307.07 270.85,330.00 269.98,330.00 C269.53,330.00 268.12,329.11 266.83,328.02 ZM 227.79 300.21 C224.95,298.14 224.22,297.02 224.69,295.50 C225.64,292.47 232.82,259.53 232.59,259.28 C232.48,259.16 227.69,265.57 221.95,273.53 C216.20,281.49 211.19,288.00 210.81,288.00 C210.43,288.00 209.82,287.51 209.45,286.92 C209.08,286.32 207.49,285.05 205.92,284.10 L 203.05 282.35 L 215.78 264.83 C222.77,255.18 230.75,244.10 233.50,240.19 C236.25,236.28 238.97,233.07 239.54,233.04 C240.11,233.02 242.07,234.25 243.89,235.77 L 247.20 238.53 L 245.02 249.02 C243.81,254.78 241.95,263.28 240.89,267.89 C239.82,272.51 239.07,276.40 239.23,276.55 C239.38,276.69 244.15,270.33 249.84,262.40 L 260.18 248.00 L 263.17 249.75 C267.31,252.18 268.46,253.72 267.27,255.25 C266.73,255.94 258.76,266.96 249.56,279.75 C240.35,292.54 232.52,302.98 232.16,302.96 C231.80,302.94 229.83,301.71 227.79,300.21 ZM 194.49 275.91 C192.85,274.67 191.12,273.33 190.66,272.94 C190.19,272.54 190.82,269.46 192.05,266.08 C193.28,262.71 194.11,259.81 193.89,259.64 C193.68,259.47 190.57,257.28 187.00,254.77 L 180.50 250.21 L 176.00 254.10 C173.52,256.24 171.03,258.00 170.46,258.00 C169.89,258.00 167.92,256.74 166.07,255.20 L 162.72 252.40 L 177.51 240.45 C185.65,233.88 196.72,225.00 202.12,220.72 L 211.94 212.93 L 215.99 215.61 C219.24,217.76 219.91,218.71 219.39,220.40 C218.57,223.00 200.77,270.25 198.87,274.84 L 197.49 278.17 L 194.49 275.91 ZM 201.35 241.30 C203.32,235.96 204.81,231.48 204.67,231.34 C204.32,230.98 188.55,243.88 188.26,244.77 C188.02,245.47 195.84,250.95 197.13,250.98 C197.48,250.99 199.38,246.63 201.35,241.30 ZM 152.25 245.22 L 148.99 242.50 L 152.48 229.50 C156.57,214.26 156.61,213.86 154.01,212.24 C152.19,211.10 151.53,211.67 146.36,218.75 C135.34,233.85 136.03,233.09 134.19,232.03 C133.26,231.50 131.43,230.21 130.13,229.19 L 127.77 227.32 L 140.94 209.09 C154.33,190.55 162.94,178.76 163.50,178.18 C163.83,177.83 171.29,182.92 179.59,189.17 C188.62,195.97 189.37,201.56 182.48,210.91 C176.84,218.58 172.78,221.28 167.97,220.57 L 164.43 220.05 L 162.63 227.27 C159.53,239.65 156.94,248.00 156.21,247.97 C155.82,247.96 154.04,246.72 152.25,245.22 ZM 173.45 206.48 C174.96,204.50 175.99,202.00 175.82,200.77 C175.54,198.86 167.97,191.98 166.17,192.01 C165.36,192.03 157.64,203.00 158.15,203.42 C161.66,206.35 167.70,210.00 169.03,210.00 C169.98,210.00 171.97,208.42 173.45,206.48 ZM 81.00 161.00 L 81.00 157.00 L 250.00 157.00 L 419.00 157.00 L 419.00 161.00 L 419.00 165.00 L 250.00 165.00 L 81.00 165.00 L 81.00 161.00 ZM 84.00 116.00 L 84.00 85.00 L 88.89 85.00 L 93.79 85.00 L 99.84 98.75 C103.17,106.31 106.79,114.53 107.88,117.00 L 109.86 121.50 L 109.93 103.25 L 110.00 85.00 L 115.00 85.00 L 120.00 85.00 L 120.00 116.05 L 120.00 147.10 L 114.94 146.80 L 109.87 146.50 L 104.89 135.00 C102.15,128.68 98.69,120.61 97.20,117.07 L 94.50 110.64 L 94.23 128.82 L 93.95 147.00 L 88.98 147.00 L 84.00 147.00 L 84.00 116.00 ZM 133.00 116.03 L 133.00 85.00 L 145.50 85.00 L 158.00 85.00 L 158.00 90.00 L 158.00 95.00 L 150.50 95.00 L 143.00 95.00 L 143.00 103.00 L 143.00 111.00 L 150.55 111.00 L 158.11 111.00 L 157.80 115.75 L 157.50 120.50 L 150.25 120.79 L 143.00 121.09 L 143.00 129.04 L 143.00 137.00 L 150.55 137.00 L 158.11 137.00 L 157.80 141.75 L 157.50 146.50 L 145.25 146.78 L 133.00 147.06 L 133.00 116.03 ZM 172.57 117.75 C169.99,101.66 167.65,87.71 167.37,86.75 C166.94,85.25 167.58,85.00 171.87,85.00 C177.79,85.00 177.14,83.58 180.06,103.00 C181.27,110.97 182.48,118.18 182.77,119.00 C183.23,120.34 184.65,113.09 188.09,91.75 L 189.18 85.00 L 194.47 85.00 L 199.76 85.00 L 202.55 102.71 C204.34,114.07 205.60,119.71 206.08,118.46 C206.48,117.38 207.88,109.53 209.19,101.00 L 211.56 85.50 L 215.38 85.18 C221.81,84.65 221.96,84.89 220.48,93.18 C219.76,97.20 217.47,110.98 215.40,123.79 L 211.62 147.09 L 205.62 146.79 L 199.62 146.50 L 197.18 131.22 C195.83,122.81 194.59,116.08 194.40,116.26 C194.22,116.45 193.37,121.08 192.51,126.55 C191.65,132.02 190.48,138.86 189.90,141.75 L 188.86 147.00 L 183.06 147.00 L 177.27 147.00 L 172.57 117.75 ZM 260.00 134.08 L 260.00 121.16 L 253.50 103.39 C249.93,93.61 247.00,85.47 247.00,85.30 C247.00,85.14 249.21,85.00 251.91,85.00 L 256.81 85.00 L 260.62 95.50 C262.71,101.28 264.70,106.00 265.03,106.00 C265.36,106.00 267.36,101.28 269.48,95.50 L 273.32 85.00 L 278.23 85.00 C284.01,85.00 284.28,82.70 275.88,105.34 L 270.00 121.18 L 270.00 134.09 L 270.00 147.00 L 265.00 147.00 L 260.00 147.00 L 260.00 134.08 ZM 296.42 145.58 C294.72,144.84 292.36,143.00 291.17,141.48 C289.09,138.85 289.00,137.79 289.00,116.27 C289.00,91.28 289.40,89.46 295.61,86.52 C299.72,84.56 311.18,84.52 314.90,86.45 C321.03,89.62 321.47,91.43 321.79,114.50 C322.11,138.10 321.60,140.39 315.10,144.73 C311.13,147.38 301.56,147.82 296.42,145.58 ZM 309.96 135.55 C311.54,133.64 311.43,98.23 309.84,96.31 C308.48,94.67 301.81,94.59 300.20,96.20 C299.35,97.05 299.00,102.90 299.00,116.15 C299.00,132.95 299.18,135.01 300.75,135.92 C303.33,137.42 308.58,137.21 309.96,135.55 ZM 330.00 116.00 L 330.00 85.00 L 342.75 85.00 C353.63,85.01 355.97,85.29 358.70,86.96 C363.81,90.08 365.25,93.96 364.85,103.57 C364.53,111.16 364.25,112.13 361.56,114.93 C359.95,116.62 358.04,118.00 357.31,118.00 C355.38,118.00 355.58,118.86 360.38,131.22 C367.05,148.40 366.98,147.00 361.24,147.00 L 356.34 147.00 L 351.04 133.00 C345.92,119.49 345.64,119.00 342.87,119.00 L 340.00 119.00 L 340.00 133.00 L 340.00 147.00 L 335.00 147.00 L 330.00 147.00 L 330.00 116.00 ZM 353.80 107.80 C354.46,107.14 355.00,104.53 355.00,102.00 C355.00,99.47 354.46,96.86 353.80,96.20 C353.12,95.52 349.87,95.00 346.30,95.00 L 340.00 95.00 L 340.00 102.00 L 340.00 109.00 L 346.30 109.00 C349.87,109.00 353.12,108.48 353.80,107.80 ZM 377.00 116.00 L 377.00 85.00 L 382.00 85.00 L 387.00 85.00 L 387.04 94.75 C387.10,105.93 386.66,106.04 395.04,92.75 L 399.93 85.00 L 404.57 85.00 C410.06,85.00 410.10,84.67 403.07,95.89 C400.28,100.34 398.00,104.24 398.00,104.55 C398.00,104.87 401.88,113.98 406.61,124.81 C411.35,135.64 415.45,145.06 415.72,145.75 C416.08,146.65 414.82,147.00 411.25,147.00 L 406.28 147.00 L 400.49 133.75 C397.31,126.46 394.07,118.97 393.28,117.10 L 391.85 113.71 L 389.46 117.60 C387.27,121.17 387.06,122.58 387.03,134.25 L 387.00 147.00 L 382.00 147.00 L 377.00 147.00 L 377.00 116.00 Z" fill="rgb(251,253,253)"/>
</g>
</svg>